<?xml version="1.0" encoding="UTF-8" standalone="no"?>
<!-- Created with Inkscape (http://www.inkscape.org/) -->

<svg
   xmlns:dc="http://purl.org/dc/elements/1.1/"
   xmlns:cc="http://creativecommons.org/ns#"
   xmlns:rdf="http://www.w3.org/1999/02/22-rdf-syntax-ns#"
   xmlns:svg="http://www.w3.org/2000/svg"
   xmlns="http://www.w3.org/2000/svg"
   xmlns:sodipodi="http://sodipodi.sourceforge.net/DTD/sodipodi-0.dtd"
   xmlns:inkscape="http://www.inkscape.org/namespaces/inkscape"
   width="280"
   height="280"
   id="svg2"
   version="1.1"
   inkscape:version="0.48.3.1 r9886"
   sodipodi:docname="humor_arrows.svg">
  <defs
     id="defs4" />
  <sodipodi:namedview
     id="base"
     pagecolor="#ffffff"
     bordercolor="#666666"
     borderopacity="1.0"
     inkscape:pageopacity="0.0"
     inkscape:pageshadow="2"
     inkscape:zoom="2.8"
     inkscape:cx="5.7319702"
     inkscape:cy="124.5457"
     inkscape:document-units="px"
     inkscape:current-layer="g4741"
     showgrid="false"
     inkscape:window-width="1920"
     inkscape:window-height="927"
     inkscape:window-x="0"
     inkscape:window-y="29"
     inkscape:window-maximized="1" />
  <metadata
     id="metadata7">
    <rdf:RDF>
      <cc:Work
         rdf:about="">
        <dc:format>image/svg+xml</dc:format>
        <dc:type
           rdf:resource="http://purl.org/dc/dcmitype/StillImage" />
        <dc:title />
      </cc:Work>
    </rdf:RDF>
  </metadata>
  <g
     inkscape:label="Layer 1"
     inkscape:groupmode="layer"
     id="layer1"
     transform="translate(0,-772.36218)"
     style="display:inline">
    <path
       style="fill:#000000;stroke:none;display:inline"
       d="m 87.907281,1008.2046 c 0,0 -34.710614,-84.01287 -30.488277,-110.02297 4.222335,-26.01009 28.459938,-64.57311 28.459938,-64.57311 l 8.394545,18.04232 -1.056759,-40.46338 -34.484524,20.72101 18.497184,-2.19628 c 0,0 -30.535295,36.89433 -36.380104,65.15548 -5.844808,28.26117 29.825498,121.29033 29.825498,121.29033 z"
       id="path3345-7"
       inkscape:connector-curvature="0"
       sodipodi:nodetypes="czccccczcc" />
    <text
       xml:space="preserve"
       style="font-size:47.56809235px;font-style:normal;font-variant:normal;font-weight:normal;font-stretch:normal;line-height:125%;letter-spacing:0px;word-spacing:0px;fill:#000000;fill-opacity:1;stroke:none;font-family:FreeSans;-inkscape-font-specification:FreeSans"
       x="75.861122"
       y="803.64777"
       id="text2985"
       sodipodi:linespacing="125%"><tspan
         sodipodi:role="line"
         id="tspan2987"
         x="75.861122"
         y="803.64777"
         style="font-size:28.5408535px;font-style:italic;-inkscape-font-specification:FreeSans Italic">Humorists</tspan></text>
    <text
       xml:space="preserve"
       style="font-size:47.56809235px;font-style:normal;font-variant:normal;font-weight:normal;font-stretch:normal;line-height:125%;letter-spacing:0px;word-spacing:0px;fill:#000000;fill-opacity:1;stroke:none;font-family:FreeSans;-inkscape-font-specification:FreeSans"
       x="67.548607"
       y="1041.2264"
       id="text2989"
       sodipodi:linespacing="125%"><tspan
         sodipodi:role="line"
         id="tspan2991"
         x="67.548607"
         y="1041.2264"
         style="font-size:28.5408535px;font-style:italic;-inkscape-font-specification:FreeSans Italic">Consumers</tspan></text>
    <path
       style="fill:#000000;stroke:none"
       d="m 190.84622,819.14094 c 0,0 34.71062,84.0128 30.48828,110.0229 -4.22233,26.01008 -28.45993,64.57311 -28.45993,64.57311 l -8.39455,-18.04231 1.05675,40.46336 34.48454,-20.72096 -18.49719,2.19621 c 0,0 30.53529,-36.89431 36.3801,-65.15545 5.84481,-28.26117 -29.8255,-121.29034 -29.8255,-121.29034 z"
       id="path3345"
       inkscape:connector-curvature="0"
       sodipodi:nodetypes="czccccczcc" />
    <g
       transform="matrix(1.8075703,0,0,1.8075703,364.12527,162.02535)"
       id="layer1-3"
       inkscape:label="Ebene 1">
      <g
         id="g4253"
         transform="translate(1.555665,-0.518555)">
        <path
           style="fill:#ffffff;fill-opacity:1;stroke:#000000;stroke-width:1.08866346;stroke-linecap:round;stroke-linejoin:round;stroke-miterlimit:4;stroke-opacity:1;stroke-dasharray:none"
           d="m -79.060746,396.75409 c -3.241436,0.25966 -6.862225,0.6427 -10.673975,1.14403 -13.552889,1.78253 -24.400329,4.39086 -24.212179,5.82135 0.17636,1.34093 9.98781,1.1747 22.37881,-0.3197 0.05681,0.37718 0.117672,0.71594 0.181177,1.00065 -6.952809,1.00377 -12.078977,6.14962 -11.645887,11.81153 0.22693,2.96666 1.87625,5.54597 4.376601,7.3468 l -4.624971,0.70635 c -1.16556,0.178 -1.96014,1.25908 -1.78213,2.42464 0.17801,1.16556 1.25908,1.96013 2.42464,1.78212 l 4.157363,-0.63418 1.245763,0.58483 -0.66332,0.10079 c -1.320721,0.2017 -2.220716,1.42684 -2.019013,2.74756 0.201705,1.32073 1.427019,2.22298 2.747741,2.02128 l 26.077023,-3.98276 c 1.320721,-0.2017 2.220716,-1.42684 2.019013,-2.74756 -0.201705,-1.32073 -1.427021,-2.22298 -2.747741,-2.02128 l -5.243238,0.80141 -1.738522,-0.69272 c 0.689482,-0.43833 1.091259,-1.25367 0.959552,-2.11606 -0.06693,-0.43821 -0.259943,-0.82425 -0.538767,-1.1257 1.229267,-1.39786 2.079627,-3.0206 2.434052,-4.756 3.876652,-3.17623 8.041284,-5.64624 12.808146,-7.14409 1.344773,2.30004 3.922574,3.76024 6.756146,3.5435 3.954786,-0.30251 6.91875,-3.75748 6.616241,-7.71226 -0.302511,-3.95479 -3.757475,-6.91875 -7.71226,-6.61624 -2.893864,0.22136 -5.257933,2.13114 -6.199201,4.68916 -6.051738,0.16868 -14.191197,1.44859 -19.492057,1.86859 -1.194534,-0.4638 -2.488982,-0.78734 -3.84827,-0.94534 0.01443,-0.34074 -0.01783,-0.88549 -0.08876,-1.51724 12.629628,-1.76781 22.446161,-4.19526 22.267117,-5.55656 -0.135228,-1.02817 -5.935425,-1.17045 -14.219093,-0.5069 z"
           id="rect4057"
           inkscape:connector-curvature="0" />
        <rect
           transform="matrix(0.988538,-0.15097228,0.15097228,0.988538,0,0)"
           ry="2.1282947"
           y="403.80945"
           x="-168.27809"
           height="4.2565894"
           width="27.536455"
           id="rect4008"
           style="fill:#ffffff;fill-opacity:1;stroke:#000000;stroke-width:0.29031026;stroke-linecap:round;stroke-linejoin:round;stroke-miterlimit:4;stroke-opacity:1;stroke-dasharray:none" />
        <path
           inkscape:connector-curvature="0"
           style="fill:#ffffff;fill-opacity:1;stroke:#000000;stroke-width:0.29031023;stroke-linecap:round;stroke-linejoin:round;stroke-miterlimit:4;stroke-opacity:1;stroke-dasharray:none"
           d="m -99.83682,425.10353 17.720628,-1.77353 8.931481,3.55693 -19.548219,3.64521 -6.844523,-3.20895 c 0.342414,-0.68772 0.201186,-1.43427 -0.259367,-2.21966 z"
           id="rect4010"
           sodipodi:nodetypes="cccccc" />
        <path
           inkscape:connector-curvature="0"
           style="fill:#ffffff;fill-opacity:1;fill-rule:evenodd;stroke:#000000;stroke-width:0.29031023;stroke-linecap:round;stroke-linejoin:round;stroke-miterlimit:4;stroke-opacity:1;stroke-dasharray:none"
           d="m -56.915396,410.16605 c 2.088452,-0.15975 3.529815,-1.91341 3.369131,-4.01407 -0.160685,-2.10067 -1.860928,-3.73141 -3.94938,-3.57166 -1.957923,0.14977 -3.390359,2.02013 -3.229675,4.1208 0.160685,2.10066 1.852001,3.61469 3.809924,3.46493 z"
           id="path3938" />
        <path
           inkscape:connector-curvature="0"
           style="fill:#ffffff;fill-opacity:1;fill-rule:evenodd;stroke:#000000;stroke-width:0.29031023;stroke-linecap:round;stroke-linejoin:round;stroke-miterlimit:4;stroke-opacity:1;stroke-dasharray:none"
           d="m -83.472486,405.30618 c 9.19268,-0.68523 27.577482,-4.18414 27.807701,0.445 0.0837,1.70095 -1.359703,2.3202 -1.738957,2.47969 -9.085305,1.23301 -16.021012,5.65902 -22.426044,11.90635 -2.562132,-1.89965 -5.552213,-12.072 -3.6427,-14.83104 z"
           id="path3940"
           sodipodi:nodetypes="ccccc" />
        <path
           inkscape:connector-curvature="0"
           style="fill:#ffffff;fill-opacity:1;fill-rule:evenodd;stroke:#000000;stroke-width:0.29031023;stroke-linecap:round;stroke-linejoin:round;stroke-miterlimit:4;stroke-opacity:1;stroke-dasharray:none"
           d="m -88.568869,426.19771 c 7.524108,-0.57554 13.244156,-5.97151 12.777773,-12.06863 -0.456459,-5.9674 -6.930657,-10.4306 -14.454765,-9.85507 -7.524108,0.57554 -13.244159,5.97151 -12.787699,11.93891 0.46639,6.09712 6.940583,10.56032 14.464691,9.98479 z"
           id="path3942" />
        <rect
           style="fill:#ffffff;fill-opacity:1;stroke:#000000;stroke-width:0.29031023;stroke-linecap:round;stroke-linejoin:round;stroke-miterlimit:4;stroke-opacity:1;stroke-dasharray:none"
           id="rect4038"
           width="4.507957"
           height="5.1033478"
           x="-143.39557"
           y="384.79395"
           ry="2.2539785"
           rx="0.25516739"
           transform="matrix(0.99146138,-0.13040063,0.13040063,0.99146138,0,0)" />
        <rect
           style="fill:#ffffff;fill-opacity:1;stroke:#000000;stroke-width:0.29031026;stroke-linecap:round;stroke-linejoin:round;stroke-miterlimit:4;stroke-opacity:1;stroke-dasharray:none"
           id="rect4006"
           width="31.202147"
           height="4.8232327"
           x="-163.8828"
           y="408.83231"
           ry="2.4116163"
           transform="matrix(0.988538,-0.15097228,0.15097228,0.988538,0,0)" />
        <path
           inkscape:connector-curvature="0"
           id="path4013"
           d="m -94.197863,407.22958 c 1.630417,0.31279 1.911152,2.10331 0.676268,3.94957 -1.200026,1.89886 -3.593587,3.16799 -5.224005,2.8552 -1.72477,-0.25991 -2.0055,-2.05043 -0.805476,-3.9493 1.234884,-1.84626 3.593588,-3.16799 5.353213,-2.85547 z"
           style="fill:#ffffff;fill-opacity:1;fill-rule:evenodd;stroke:none" />
        <path
           transform="matrix(0.01668846,-0.00127654,0.00127654,0.01668846,-79.517543,405.48548)"
           d="m 1772.9201,126.82128 c 0,237.09946 -192.2071,429.30655 -429.3066,429.30655 -237.0994,0 -429.30652,-192.20709 -429.30652,-429.30655 0,-237.09946 192.20712,-429.30655 429.30652,-429.30655 237.0995,0 429.3066,192.20709 429.3066,429.30655 z"
           sodipodi:ry="429.30655"
           sodipodi:rx="429.30655"
           sodipodi:cy="126.82128"
           sodipodi:cx="1343.6135"
           id="path4019"
           style="fill:#ffffff;fill-opacity:1;stroke:#000000;stroke-width:17.34519577;stroke-linecap:round;stroke-linejoin:round;stroke-miterlimit:4;stroke-opacity:1;stroke-dasharray:none"
           sodipodi:type="arc" />
        <path
           transform="matrix(0.00393834,-3.0125231e-4,3.0125231e-4,0.00393834,-62.262621,405.79206)"
           sodipodi:type="arc"
           style="fill:#ffffff;fill-opacity:1;stroke:#000000;stroke-width:73.49919128;stroke-linecap:round;stroke-linejoin:round;stroke-miterlimit:4;stroke-opacity:1;stroke-dasharray:none"
           id="path4021"
           sodipodi:cx="1343.6135"
           sodipodi:cy="126.82128"
           sodipodi:rx="429.30655"
           sodipodi:ry="429.30655"
           d="m 1772.9201,126.82128 c 0,237.09946 -192.2071,429.30655 -429.3066,429.30655 -237.0994,0 -429.30652,-192.20709 -429.30652,-429.30655 0,-237.09946 192.20712,-429.30655 429.30652,-429.30655 237.0995,0 429.3066,192.20709 429.3066,429.30655 z" />
        <path
           sodipodi:type="arc"
           style="fill:#ffffff;fill-opacity:1;stroke:#000000;stroke-width:15.49123669;stroke-linecap:round;stroke-linejoin:round;stroke-miterlimit:4;stroke-opacity:1;stroke-dasharray:none"
           id="path4023"
           sodipodi:cx="1343.6135"
           sodipodi:cy="126.82128"
           sodipodi:rx="429.30655"
           sodipodi:ry="429.30655"
           d="m 1772.9201,126.82128 c 0,237.09946 -192.2071,429.30655 -429.3066,429.30655 -237.0994,0 -429.30652,-192.20709 -429.30652,-429.30655 0,-237.09946 192.20712,-429.30655 429.30652,-429.30655 237.0995,0 429.3066,192.20709 429.3066,429.30655 z"
           transform="matrix(0.05719069,-0.00752193,7.9393066e-4,0.00603641,-166.33675,409.83147)" />
        <path
           inkscape:connector-curvature="0"
           style="fill:#ffffff;fill-opacity:1;stroke:#000000;stroke-width:0.29031023;stroke-linecap:round;stroke-linejoin:round;stroke-miterlimit:4;stroke-opacity:1;stroke-dasharray:none"
           d="m -89.619424,399.26367 c -2.104764,0.27683 -3.965554,1.06903 -5.363621,2.1649 l 11.104618,-1.46052 c -1.633885,-0.69709 -3.636236,-0.9812 -5.740997,-0.70438 z"
           id="path4030" />
        <text
           inkscape:transform-center-x="6.4285714"
           transform="matrix(0.9428622,-0.33318294,0.33318294,0.9428622,0,0)"
           sodipodi:linespacing="125%"
           id="text4115"
           y="357.89365"
           x="-232.61024"
           style="font-size:16.05750275px;font-style:normal;font-variant:normal;font-weight:normal;font-stretch:normal;line-height:125%;letter-spacing:0px;word-spacing:0px;fill:#000000;fill-opacity:1;stroke:none;display:inline;font-family:FreeSans;-inkscape-font-specification:FreeSans"
           xml:space="preserve"><tspan
             id="tspan4119"
             style="font-size:4.81725073px"
             y="357.89365"
             x="-232.61024"
             sodipodi:role="line">HMS</tspan><tspan
             id="tspan4169"
             style="font-size:4.81725073px"
             y="363.91522"
             x="-232.61024"
             sodipodi:role="line">ROFLCOPTER</tspan></text>
      </g>
    </g>
    <text
       xml:space="preserve"
       style="font-size:21.32912064px;font-style:normal;font-variant:normal;font-weight:normal;font-stretch:normal;line-height:125%;letter-spacing:0px;word-spacing:0px;fill:#666666;fill-opacity:1;stroke:none;font-family:FreeSans;-inkscape-font-specification:FreeSans"
       x="218.79822"
       y="988.90674"
       id="text4171"
       sodipodi:linespacing="125%"><tspan
         sodipodi:role="line"
         id="tspan4173"
         x="218.79822"
         y="988.90674">lulz</tspan></text>
    <text
       xml:space="preserve"
       style="font-size:21.32912064px;font-style:normal;font-variant:normal;font-weight:normal;font-stretch:normal;line-height:125%;letter-spacing:0px;word-spacing:0px;fill:#666666;fill-opacity:1;stroke:none;display:inline;font-family:FreeSans;-inkscape-font-specification:FreeSans"
       x="78.513123"
       y="862.61914"
       id="text4171-1"
       sodipodi:linespacing="125%"><tspan
         sodipodi:role="line"
         id="tspan4173-0"
         x="78.513123"
         y="862.61914">$</tspan></text>
    <g
       id="g4741"
       transform="matrix(0.66648116,0,0,0.66648116,137.43849,337.5153)">
      <path
         sodipodi:nodetypes="ccccccccccccc"
         inkscape:connector-curvature="0"
         id="rect4702"
         d="m -202.85715,913.79075 2.49136,-6.59848 16.6515,-6.68723 c 0,0 29.00891,-11.14478 33.79433,-19.74225 -14.70809,-31.24896 -0.79433,-57.68632 -0.79433,-57.68632 l 29.28305,2.63028 18.21695,22.72686 -13.969,34.07008 46.261653,24.05668 7.356417,9.73354 0.708073,14.28255 -140.357143,0 z"
         style="fill:#e6e6e6;stroke:none" />
      <path
         id="path4455"
         d="m -142.81138,817.38333 c 2.98674,-2.05897 6.81692,-2.49061 10.31469,-2.03416 4.66864,-0.0595 9.24303,1.16592 13.55446,2.86767 3.89963,1.95478 7.0501,5.16974 9.61513,8.65759 1.34949,1.98951 2.21277,4.27174 2.8131,6.5887 0.31256,4.50988 0.21334,9.06442 -0.67475,13.5098 1.51818,0.30761 3.00659,0.78886 4.34616,1.58764 0.45645,2.36658 0.77397,4.88199 -0.13892,7.18903 -1.2453,3.31419 -2.48564,6.7673 -4.85222,9.46133 -1.06669,1.38422 -3.24969,1.48345 -4.56942,0.41179 -0.78886,-0.61025 -1.78609,-1.05677 -2.17804,-2.03912 0.26791,-0.63506 0.53583,-1.26515 0.8087,-1.89524 0.38203,1.55787 0.89801,3.25465 2.40131,4.0832 1.65709,0.72932 3.29435,-0.64498 4.12289,-1.98455 1.68687,-2.65433 2.96194,-5.57161 3.90956,-8.56332 0.74917,-2.23758 0.36714,-4.60911 -0.22822,-6.82684 -2.13835,-0.58048 -4.35608,-0.82359 -6.56389,-0.55072 -1.63229,1.46857 -3.10086,3.12071 -4.15763,5.05564 -0.22822,-0.3076 -0.45645,-0.61025 -0.68467,-0.91289 0.005,-2.34177 -0.11411,-4.73811 -1.06173,-6.91615 -0.97243,-2.78333 -3.32412,-4.67361 -5.17471,-6.84669 -0.63009,-1.53306 -1.11135,-3.22489 -0.5259,-4.85718 0.13395,-1.20561 1.52314,-2.30208 0.73428,-3.54738 -1.49834,-1.98455 -3.81529,-3.09589 -5.95861,-4.23205 -2.42611,-0.7194 -4.9316,-1.14111 -7.4619,-1.20065 -3.6466,-0.0992 -7.30313,-0.61521 -10.94478,-0.2183 -1.16096,0.0992 -2.14331,0.79382 -3.06612,1.44872 -1.70175,1.26019 -3.39854,2.73868 -4.10802,4.80261 -1.74144,4.53965 -2.59975,9.35218 -3.88971,14.03075 l -0.50606,0.0546 c -0.0397,2.33681 -0.0744,4.67361 -0.005,7.01042 0.0943,3.30923 0.8087,6.56885 0.90297,9.88305 0.17861,4.49996 0.88808,9.09915 3.06612,13.10297 0.2828,0.0893 0.8484,0.25799 1.12623,0.3473 -0.63009,-1.21554 -1.54298,-2.4658 -1.28499,-3.91452 0.52094,-3.63669 2.4013,-6.93104 2.8131,-10.60245 0.31256,-0.80374 -0.129,-1.55787 -0.33242,-2.32688 2.08874,-2.73868 3.80041,-5.73534 4.98618,-8.97512 -1.77617,0.87816 -3.66149,1.85555 -5.70557,1.47353 1.71167,-0.35226 3.47295,-0.71444 4.88694,-1.81586 -0.82358,-0.11908 -1.64221,-0.22823 -2.4658,-0.33241 -0.2183,0.1538 -0.64994,0.45644 -0.86824,0.61024 -0.49613,-0.11411 -0.98731,-0.22822 -1.48345,-0.34233 -0.21333,-0.65986 -0.42667,-1.31972 -0.64497,-1.97959 -0.62514,0.57056 -1.24531,1.14608 -1.86548,1.72656 0.40683,0.0794 1.21554,0.23815 1.62237,0.31753 -0.82359,0.39691 -1.80594,0.39195 -2.68906,0.64001 0.67474,-1.05181 1.26019,-2.28223 2.42115,-2.88255 2.054,-1.11631 4.46523,-1.04685 6.73754,-1.14608 -0.54576,0.39195 -1.07662,0.81863 -1.67199,1.13616 0.75909,0.45148 1.51322,0.898 2.27727,1.3346 0.27784,-1.33957 0.10419,-2.69898 -0.43164,-3.95421 -1.87539,0.57056 -3.83017,0.57552 -5.76511,0.66483 -1.49337,0.0744 -2.7486,0.95258 -3.93932,1.76624 -0.36715,-0.0496 -0.69956,-0.18853 -0.99724,-0.41675 0.63506,-1.11135 1.04189,-2.38146 1.91509,-3.33404 2.47076,-0.77894 5.1499,-1.19073 7.71493,-0.66482 0.87816,0.78885 1.58764,1.78609 2.01927,2.89247 0.52591,1.64718 -0.0744,3.3787 -0.73924,4.89191 -1.3743,2.91233 -2.64937,5.92884 -4.79764,8.36983 0.16868,0.30265 0.50606,0.89801 0.66978,1.20065 1.02204,-0.23814 2.04905,-0.44156 3.08597,-0.57551 0.62514,0.63505 1.26515,1.26018 1.91509,1.87043 1.0022,-0.72932 2.00439,-1.45368 3.01651,-2.16812 0.72436,-0.0447 1.45369,-0.0843 2.17805,-0.12403 0.0794,0.25799 0.22822,0.77893 0.30264,1.03693 -0.31257,0.14388 -0.9377,0.4366 -1.25026,0.58048 1.25522,0.26295 3.02147,0.91289 3.87979,-0.46637 0.5904,-1.38422 -0.46141,-2.68906 -0.99228,-3.89964 0.0844,-0.0794 0.25799,-0.24311 0.34234,-0.32745 0.67474,0.77894 1.33957,1.56779 1.97958,2.37154 1.64718,3.76567 3.92445,7.27336 5.08044,11.2375 0.2828,1.22545 0.71444,3.10085 -0.74916,3.75079 -0.73428,0.01 -1.46361,-0.14388 -2.18797,-0.24311 0.18357,-0.19349 0.36715,-0.38698 0.55072,-0.57551 0.66482,0.0992 1.32964,0.19845 1.99447,0.30264 0.2431,-1.68687 -0.01,-3.39358 -0.69459,-4.94649 -1.26019,-2.97682 -2.69403,-5.88418 -4.21221,-8.73697 -0.3721,0.64002 -0.73428,1.28996 -1.09646,1.9399 -1.40407,0.51102 -2.9024,0.60529 -4.32135,0.10419 -0.33242,-0.48622 -0.66979,-0.96747 -1.00716,-1.44376 -0.96747,0.66482 -1.81586,1.89524 -3.0959,1.86051 -0.94266,-0.43164 -1.73648,-1.11134 -2.66425,-1.57771 -0.51598,0.5259 -1.0667,1.01212 -1.64221,1.47352 l -0.18854,-0.66978 -0.56063,0.0198 c -0.36218,2.84287 -1.31476,5.55178 -2.19789,8.26565 -0.56559,1.60252 -0.6549,3.31419 -0.41179,4.98617 0.41675,0.60033 0.82855,1.20561 1.23538,1.8109 -0.36218,0.0943 -1.08654,0.27288 -1.44872,0.36714 0.99227,2.6841 2.75356,4.94153 4.71826,6.98561 2.52038,1.42391 5.50216,1.17584 8.25572,0.75909 2.5303,-0.42668 5.21936,-0.64994 7.40236,-2.13835 2.99667,-2.00935 6.21164,-3.65653 9.19838,-5.67581 1.96967,-1.29988 4.04352,-2.61464 5.38309,-4.61407 1.12623,-1.75632 1.82082,-3.73591 2.312,-5.75023 0.14388,0.58544 0.27287,1.21554 0.93273,1.41895 l -0.27783,-1.16592 0.76901,0.0595 c -0.44156,3.08597 -0.86824,6.18683 -1.5926,9.22318 -0.52591,2.18301 -0.85832,4.42058 -0.74421,6.67305 1.43384,1.57275 1.90021,3.7756 3.38862,5.30866 1.62237,1.7216 3.26954,3.51761 5.47239,4.49004 2.83294,1.25523 5.34836,3.17033 8.315255,4.13283 3.983979,1.33461 8.017572,2.61464 11.713793,4.64881 3.08101,1.67198 6.345591,2.96193 9.565519,4.32631 3.373732,1.41399 7.119565,2.01928 10.150962,4.17251 2.321921,1.46361 3.557302,4.20724 3.785525,6.86654 -0.858317,-1.82579 -1.587638,-3.71607 -2.594796,-5.46743 -1.126231,0.59536 -2.465801,1.11631 -3.026436,2.36161 -0.684669,1.50826 -0.937698,3.19016 -1.761286,4.6488 0.14388,-1.64717 0.436601,-3.32412 1.260188,-4.7778 0.625133,-1.12127 1.70175,-1.87539 2.654333,-2.69898 -2.649372,-2.44099 -6.355514,-2.88752 -9.570482,-4.2122 -3.021474,-1.24531 -6.057832,-2.46084 -9.009846,-3.86987 -4.31143,-2.441 -9.009847,-4.07825 -13.688418,-5.67085 -2.574951,-0.90297 -4.748031,-2.66426 -7.352751,-3.51762 0.98235,2.91234 2.66426,5.5369 4.37593,8.0672 2.23262,2.60472 4.594228,5.10525 6.841728,7.70004 -1.215536,2.06393 -3.651568,3.06117 -4.777798,5.23921 0.749166,0.85832 1.483449,1.73648 2.163156,2.65433 -2.718826,-2.21277 -4.976256,-4.9316 -7.670276,-7.17414 -2.97186,-2.2723 -4.74803,-5.80976 -8.11184,-7.62066 -0.46141,1.92005 -0.7442,3.87483 -1.10638,5.81969 -0.33242,1.78113 -0.96747,3.49776 -1.19073,5.30866 -0.29272,2.30704 -0.31257,4.64384 -0.31257,6.97072 l -0.19349,0 c 0.0645,-2.40626 0,-4.81749 -0.10419,-7.21879 -0.57552,0.48126 -0.94266,1.39415 -1.7216,1.55291 -3.13558,-0.5904 -5.6758,-2.64441 -8.26068,-4.37593 -0.47133,2.93713 -0.53582,5.91892 -0.88312,8.87589 -0.86824,-3.16039 0.70451,-6.40513 0.0298,-9.57048 -0.94266,-1.16096 -2.11355,-2.09866 -3.1207,-3.19512 -1.90021,-0.63506 -3.90956,-0.59536 -5.80977,0.0246 0.10915,3.25962 -0.2828,6.50931 -0.5011,9.75901 -0.66482,-3.06612 -0.20341,-6.22156 -0.45644,-9.32737 -1.20065,-0.0595 -2.29215,0.66978 -3.48288,0.40683 -0.10419,0.2183 -0.31753,0.6549 -0.42668,0.8732 -1.65214,0.72932 -3.29435,1.47849 -4.92168,2.25742 0.0794,1.71664 0.10419,3.45808 0.59536,5.12014 0.33738,1.17088 0.67971,2.34672 0.72436,3.57218 -1.23538,-2.41618 -1.58267,-5.13005 -1.89028,-7.78935 -1.09646,0.0744 -2.19292,0.14388 -3.28442,0.2183 -0.59537,-3.9294 -0.91786,-7.92827 -0.4366,-11.8924 0.12899,-0.11411 0.38698,-0.3473 0.51598,-0.46141 -0.0149,-0.4614 -0.0347,-1.37926 -0.0496,-1.8357 -1.56779,1.9647 -2.75852,4.23204 -4.59422,5.97845 -2.60472,2.51045 -4.97626,5.26897 -7.78935,7.5512 -2.29216,1.87044 -4.26678,4.17747 -6.95088,5.51208 1.94486,-1.95974 4.15763,-3.6218 6.21659,-5.4575 -0.62513,-1.05181 -1.27011,-2.08874 -1.92501,-3.12071 -0.88312,-0.50606 -1.76624,-1.00715 -2.65929,-1.49833 3.01651,-3.34892 4.42554,-7.6802 5.91395,-11.83784 -2.89248,1.34455 -5.78992,2.73869 -8.87093,3.60693 -3.0562,0.87816 -6.13721,1.69183 -9.10907,2.83294 -2.00439,0.76405 -3.91452,1.73648 -5.88915,2.56007 -3.81529,1.64221 -7.80423,2.98674 -11.24742,5.35828 2.54518,2.43107 4.41066,5.61627 4.7778,9.15868 -1.04685,-1.97958 -1.57772,-4.19731 -2.76348,-6.10744 -0.75413,-1.24531 -2.06393,-1.9647 -3.27947,-2.6841 -2.57495,2.05897 -3.21993,5.39797 -3.88971,8.43929 -0.34234,-2.6841 0.81366,-5.22929 2.10858,-7.50159 2.06393,-1.75137 4.56942,-2.7486 6.94592,-3.98894 3.48784,-1.68687 7.11956,-3.05125 10.62725,-4.6885 6.23644,-2.89248 13.30143,-3.60691 19.31461,-7.02531 1.89028,-1.03693 3.58211,-2.37649 5.24913,-3.73095 2.13835,-1.45368 4.30151,-2.96194 5.90403,-5.03083 1.04685,-0.91289 1.27507,-2.4013 2.13835,-3.42334 -2.4658,-4.11298 -4.81253,-8.43929 -5.68077,-13.20717 -0.85832,-3.82025 -0.57552,-7.76454 -1.21057,-11.6096 -0.67475,-4.11298 -0.35226,-8.28549 -0.40684,-12.42327 0.0844,-4.24693 0,-8.72209 1.94486,-12.6118 1.28996,-2.45092 2.47572,-5.01594 4.42554,-7.03522 2.34673,-2.67418 5.30371,-4.67857 8.32022,-6.51924 m -7.93819,29.23239 c -0.22823,0.69459 0.01,0.92777 0.70451,0.69459 0.22822,-0.69955 -0.005,-0.93274 -0.70451,-0.69459 m 2.40626,-0.14884 c 0.005,0.60032 -0.14388,1.12623 -0.46141,1.58763 0.81863,0.0347 1.63726,0.0695 2.45588,0.10419 l -0.0645,-0.65986 c -0.20341,-0.0496 -0.61024,-0.14388 -0.81366,-0.19349 l -0.0496,-0.32745 -0.38699,-0.129 -0.0446,-0.37706 -0.63506,-0.005 m 33.87127,4.66864 -0.005,0.22823 0.22326,0.005 0.01,-0.22326 -0.22822,-0.01 m -0.96251,15.38025 c -0.44156,3.08597 -2.42611,5.7155 -4.90183,7.51647 -3.01651,2.15324 -6.20667,4.0584 -9.38195,5.96853 -1.65709,0.98731 -3.22985,2.22269 -5.12013,2.73868 -4.20228,0.88808 -8.53852,1.71663 -12.82514,0.89304 0.78389,2.28223 1.95974,4.48508 3.98894,5.88915 3.30427,3.04628 7.27833,5.14991 11.16804,7.33291 0.23319,0.0447 0.69956,0.13892 0.93274,0.18854 1.70671,-1.28996 3.52257,-2.43108 5.33347,-3.5722 2.19789,-1.3743 4.01375,-3.23481 6.00822,-4.86711 1.11135,-0.95754 2.42611,-1.91012 2.75852,-3.43326 0.63506,-2.67418 0.24807,-5.46247 0.74421,-8.15649 0.54575,-3.06613 1.26018,-6.09257 1.80594,-9.15373 -0.129,-0.33737 -0.38203,-1.01212 -0.51103,-1.34453 m -34.69981,15.30582 c -0.58048,1.51322 -1.73648,2.71387 -2.54022,4.11298 -1.82579,2.17804 -4.56446,3.34892 -6.47459,5.45254 -0.25799,0.0149 -0.77397,0.0347 -1.03197,0.0447 -0.26295,0.20837 -0.78389,0.62017 -1.04684,0.82854 -1.96471,4.04353 -2.73868,8.80645 -6.03303,12.08095 1.56779,1.35942 2.98674,2.87759 4.20228,4.5595 1.35942,-0.98731 2.64937,-2.07882 3.79545,-3.3142 1.93989,-2.03912 4.00878,-3.97405 5.76015,-6.17194 1.26515,-1.70671 2.21277,-3.65653 3.64164,-5.22928 -1.04189,-2.93218 -1.39414,-6.04792 -1.16592,-9.14382 0.35722,-0.65986 0.7194,-1.31972 1.0915,-1.97462 -0.0198,3.17527 -0.76901,6.4597 0.42172,9.52583 0.45644,-0.59537 0.90793,-1.19569 1.35941,-1.79602 1.67695,0.6549 3.42335,1.10639 5.13502,1.66702 2.83294,0.95258 5.19456,2.87264 7.36267,4.87208 0.98732,0.94762 2.41123,1.04188 3.67142,1.35941 0.83351,-0.31256 1.7464,-0.43164 2.50549,-0.91785 4.61903,-1.39911 9.51094,-1.94486 14.32843,-1.80594 0.35722,-4.60912 0.0844,-9.23312 -0.40187,-13.81743 -0.23318,0.0298 -0.70451,0.0893 -0.9377,0.11908 -0.35225,1.47849 -0.10419,3.20504 -1.11631,4.45531 -1.12623,1.35445 -2.58983,2.36657 -3.88971,3.53745 -3.07109,2.77837 -6.57877,5.00604 -10.017,7.28331 -2.36162,-0.6946 -4.38585,-2.12843 -6.50932,-3.3142 -2.47572,-1.414 -4.6488,-3.26459 -6.79708,-5.12014 -2.08377,-1.76129 -2.91728,-4.45035 -4.13282,-6.79708 -0.51598,0.0695 -0.91289,-0.0992 -1.1808,-0.49614 m 35.50356,3.62676 c -0.11412,4.89191 -0.13396,9.80368 0.46637,14.66582 1.6819,1.29492 3.36876,2.61464 4.74803,4.24694 1.06173,1.26514 2.19292,2.49556 3.5573,3.44319 1.80594,1.25026 3.23481,2.93216 4.77283,4.47515 1.632295,-1.49833 3.21001,-3.05124 4.708344,-4.68353 -2.178041,-2.25742 -4.212204,-4.6488 -6.236444,-7.04018 -2.054,-2.71884 -3.65157,-5.76512 -4.9961,-8.89079 -2.74363,-1.59756 -4.66368,-4.15763 -7.02033,-6.2166 z"
         inkscape:connector-curvature="0"
         style="fill:#000000" />
      <path
         id="path4457"
         d="m -137.63171,840.92999 c 3.44815,-0.53583 7.23864,-0.75909 10.41391,0.93273 1.23042,1.23538 2.47573,2.45588 3.7756,3.6218 0.0695,0.26296 0.21334,0.79382 0.2828,1.05677 -2.02424,-0.92281 -3.93932,-2.12842 -6.09256,-2.74859 -2.25742,-0.45149 -4.5843,-0.38203 -6.8715,-0.55568 -0.53582,-0.44652 -1.07165,-0.88808 -1.60748,-1.32468 0.0248,-0.24807 0.0744,-0.73925 0.0992,-0.98235 z"
         inkscape:connector-curvature="0"
         style="fill:#000000" />
      <path
         id="path4459"
         d="m -137.03139,847.27062 c 0.7839,-0.80871 1.53307,-1.79602 2.68907,-2.05897 1.69182,-0.42668 3.39357,0.18357 5.01594,0.62017 l -0.26295,0.14388 c -0.6549,0.25799 -1.08654,0.86824 -1.18577,1.54795 0.63009,0.0546 1.37926,0 1.78609,-0.5656 -0.14884,-0.24311 -0.45148,-0.73428 -0.60032,-0.98235 0.90793,0.21334 1.7464,0.58544 2.46084,1.20065 -2.2475,0.8732 -4.67361,0.95258 -7.04019,0.60529 0.0248,-0.77398 0.0496,-1.54795 0.0695,-2.32192 -0.66978,0.49117 -1.3346,0.97739 -1.99943,1.47352 0.39195,0.13892 2.79821,0.30265 1.07166,0.66979 l -0.64002,0.20341 c 2.39138,1.38423 5.16479,1.49834 7.85385,1.53803 -3.17032,1.17088 -6.6532,-0.11907 -9.21823,-2.07385 m 4.13779,-1.66702 c -0.66483,0.31752 -0.67971,0.64994 -0.0447,1.00219 0.66483,-0.31753 0.67971,-0.64994 0.0447,-1.00219 z"
         inkscape:connector-curvature="0"
         style="fill:#000000" />
      <path
         id="path4461"
         d="m -132.8936,845.6036 c 0.63505,0.35225 0.62017,0.68466 -0.0447,1.00219 -0.63505,-0.35225 -0.62017,-0.68467 0.0447,-1.00219 z"
         inkscape:connector-curvature="0"
         style="fill:#ffffff" />
      <path
         id="path4463"
         d="m -130.7751,847.52365 c 0.0992,-0.67971 0.53087,-1.28996 1.18577,-1.54795 0.14884,0.24807 0.45148,0.73924 0.60032,0.98235 -0.40683,0.5656 -1.156,0.62017 -1.78609,0.5656 z"
         inkscape:connector-curvature="0"
         style="fill:#ffffff" />
      <path
         id="path4465"
         d="m -150.74957,846.61572 c 0.69955,-0.23815 0.93273,-0.005 0.70451,0.69459 -0.69459,0.23318 -0.93274,0 -0.70451,-0.69459 z"
         inkscape:connector-curvature="0"
         style="fill:#ffffff" />
      <path
         id="path4467"
         d="m -148.34331,846.46687 0.63506,0.005 0.0446,0.37706 0.38699,0.129 0.0496,0.32745 c 0.20342,0.0496 0.61025,0.14388 0.81366,0.19349 l 0.0645,0.65986 c -0.81862,-0.0347 -1.63725,-0.0695 -2.45588,-0.10419 0.31753,-0.4614 0.46637,-0.98731 0.46141,-1.58764 z"
         inkscape:connector-curvature="0"
         style="fill:#ffffff" />
      <path
         id="path4469"
         d="m -127.12849,847.17635 0.36714,-0.17861 0.35226,0.22822 -0.005,0.4118 -0.37706,0.16868 -0.35226,-0.22822 0.0149,-0.40187 z"
         inkscape:connector-curvature="0"
         style="fill:#000000" />
      <path
         id="path4471"
         d="m -126.41406,847.63776 0.25303,-0.0496 0.0645,0.25303 -0.25303,0.0447 -0.0645,-0.24807 z"
         inkscape:connector-curvature="0"
         style="fill:#000000" />
      <path
         id="path4473"
         d="m -126.09653,847.84117 c 0.66979,-0.45148 2.02424,0.2828 2.17308,1.04189 -0.8087,0.17365 -1.80594,-0.30264 -2.17308,-1.04189 z"
         inkscape:connector-curvature="0"
         style="fill:#000000" />
      <path
         id="path4475"
         d="m -123.38762,847.54845 0.3721,-0.17861 0.33241,0.23319 -0.0347,0.41179 -0.3721,0.17365 -0.33241,-0.23318 0.0347,-0.40684 z"
         inkscape:connector-curvature="0"
         style="fill:#000000" />
      <path
         id="path4477"
         d="m -122.68807,848.71437 0.20342,0.13396 -0.13396,0.19846 -0.21334,-0.129 0.14388,-0.20342 z"
         inkscape:connector-curvature="0"
         style="fill:#000000" />
      <path
         id="path4479"
         d="m -112.03105,853.39295 c 1.88036,-1.80594 3.48785,-4.10306 6.0876,-4.91176 0.49614,0.58048 0.5656,1.71663 1.50826,1.71663 0.0397,0.29769 0.12403,0.88809 0.16373,1.18081 l -0.67475,-0.0298 c -0.0496,1.89028 -0.0546,3.78553 -0.18853,5.67581 -0.39691,2.29711 -1.57772,4.48011 -3.50769,5.83953 -0.53583,-0.45645 -1.07166,-0.91289 -1.60748,-1.36438 0.60032,0.24311 1.20065,0.48126 1.80593,0.72436 1.06174,-1.21553 2.25743,-2.4906 2.47077,-4.16755 0.40187,-2.92224 0.42667,-5.88914 0.36714,-8.83123 -0.98235,0.1786 -2.06889,0.27287 -2.76845,1.08654 -1.07165,1.14607 -2.51541,2.06393 -3.15047,3.53249 1.26515,-0.0645 2.52534,-0.13396 3.79049,-0.19845 -0.27288,0.22326 -0.54575,0.44652 -0.81863,0.67474 0.74917,0.13892 0.98235,1.19073 1.12623,1.83571 -1.04684,-0.11411 -0.89304,1.53306 -1.29987,2.22269 0.42171,-0.28776 0.84343,-0.57056 1.27507,-0.84839 -0.54079,0.94762 -1.14112,1.86051 -1.79106,2.73867 -0.83351,0.49118 -1.75136,0.47133 -2.6841,0.36714 -0.36714,-0.3721 -0.73924,-0.73924 -1.10638,-1.10638 l 0.61521,0.12403 c 0.63009,-1.50329 0.9625,-3.10581 1.12127,-4.72322 -0.24311,-0.51102 -0.49118,-1.027 -0.73429,-1.53802 m 0.9377,1.03692 c -0.12899,1.90021 -0.34233,3.79049 -0.67474,5.66589 0.97242,-0.21334 1.93989,-0.43164 2.90736,-0.64994 -0.36218,-1.16096 -0.75909,-2.30704 -1.18081,-3.44319 l -0.43164,-0.15381 c 0.21334,-0.67474 0.005,-1.14607 -0.62017,-1.41895 z"
         inkscape:connector-curvature="0"
         style="fill:#000000" />
      <path
         id="path4481"
         d="m -123.92345,848.88306 0.31753,-0.22326 c 0.19349,0.0645 0.58048,0.19349 0.77397,0.25799 0.26792,0.8087 -1.3098,0.74421 -1.0915,-0.0347 z"
         inkscape:connector-curvature="0"
         style="fill:#000000" />
      <path
         id="path4483"
         d="m -114.47204,851.13552 0.22822,0.01 -0.01,0.22326 -0.22326,-0.005 0.005,-0.22823 z"
         inkscape:connector-curvature="0"
         style="fill:#b5b5b5" />
      <path
         id="path4485"
         d="m -104.94621,851.34886 0.67475,0.0298 c 0.16868,1.92005 0.30264,3.98398 -0.86328,5.64604 0.13395,-1.89028 0.13892,-3.78553 0.18853,-5.67581 z"
         inkscape:connector-curvature="0"
         style="fill:#b5b5b5" />
      <path
         id="path4487"
         d="m -142.28052,854.04289 c 1.33461,0.1786 1.55291,2.06889 3.27947,1.67694 0.11907,0.14884 0.3473,0.44156 0.46637,0.5904 -0.58544,-0.0248 -1.17088,-0.0496 -1.75633,-0.0744 -0.20341,-0.50606 -0.77397,-0.97739 -1.44872,-0.94266 -0.01,-0.17861 -0.0198,-0.54079 -0.0298,-0.72436 l -0.58545,-0.11907 0.0744,-0.40683 z"
         inkscape:connector-curvature="0"
         style="fill:#000000" />
      <path
         id="path4489"
         d="m -111.09335,854.42987 c 0.62514,0.27288 0.83351,0.74421 0.62017,1.41895 l 0.43164,0.15381 c 0.42172,1.13615 0.81863,2.28223 1.18081,3.44319 -0.96747,0.2183 -1.93494,0.4366 -2.90736,0.64994 0.33241,-1.8754 0.54575,-3.76568 0.67474,-5.66589 z"
         inkscape:connector-curvature="0"
         style="fill:#ffffff" />
      <path
         id="path4491"
         d="m -146.98886,863.30576 c 1.29492,-0.25303 2.62457,0 3.93437,-0.0645 1.44872,0.0397 3.04132,-0.33737 4.35112,0.48126 1.82083,1.07661 3.19512,2.71883 4.64881,4.21716 1.16096,0.62513 1.8109,1.85555 2.67417,2.8131 -1.54298,-0.47629 -2.81805,-1.38919 -3.94428,-2.52534 -1.65214,-0.44156 -3.35885,-0.86824 -5.07549,-0.58544 -2.76844,0.39195 -5.55177,0.67971 -8.34502,0.77893 2.77837,-1.14111 5.91395,-0.64497 8.66751,-1.89028 -3.32412,-0.57552 -7.50159,-0.66482 -9.81855,2.23758 -0.64994,1.03196 -1.18576,2.12843 -1.85059,3.15047 0.17861,-2.22269 1.51818,-4.05344 2.45092,-6.00326 0.54575,-1.02204 1.15104,-2.183 2.30703,-2.60968 m -2.10858,3.73591 c 1.96967,-0.57055 3.90956,-1.62237 6.02311,-1.36437 2.33184,0.22822 4.62399,0.72932 6.8963,1.29491 -1.0022,-1.45864 -2.25742,-3.25962 -4.23701,-3.22489 -1.96966,0.129 -3.93933,0.1935 -5.90899,0.0695 -1.80098,-0.17861 -2.24254,1.94486 -2.77341,3.22489 z"
         inkscape:connector-curvature="0"
         style="fill:#000000" />
      <path
         id="path4493"
         d="m -149.09744,867.04167 c 0.53087,-1.28003 0.97243,-3.4035 2.77341,-3.22489 1.96966,0.12404 3.93933,0.0595 5.90899,-0.0695 1.97959,-0.0347 3.23481,1.76625 4.23701,3.22489 -2.27231,-0.56559 -4.56446,-1.06669 -6.8963,-1.29491 -2.11355,-0.258 -4.05344,0.79382 -6.02311,1.36437 z"
         inkscape:connector-curvature="0"
         style="fill:#b5b5b5" />
      <path
         id="path4495"
         d="m -149.89622,868.76823 c 2.31696,-2.9024 6.49443,-2.8131 9.81855,-2.23758 -2.75356,1.24531 -5.88914,0.74917 -8.66751,1.89028 -0.28776,0.0843 -0.86328,0.26296 -1.15104,0.3473 z"
         inkscape:connector-curvature="0"
         style="fill:#b5b5b5" />
      <path
         id="path4499"
         d="m -145.74851,872.03777 c 2.57991,-1.16096 5.64108,-0.31753 7.80919,1.33461 1.39911,1.28003 2.48565,2.88256 3.27947,4.59423 -1.35942,-1.3098 -2.43107,-2.87264 -3.46304,-4.44539 -2.08873,-0.86328 -4.36104,-2.00935 -6.66808,-1.27011 -2.60968,0.69459 -4.2122,3.01155 -5.88914,4.94152 -0.0992,-0.12403 -0.29272,-0.37706 -0.39195,-0.50109 1.69182,-1.62733 3.08597,-3.71111 5.32355,-4.65377 z"
         inkscape:connector-curvature="0"
         style="fill:#000000" />
      <path
         id="path4501"
         d="m -131.03309,874.7566 c 1.34949,-1.12623 2.69898,-2.25742 4.1477,-3.25466 -1.17584,1.49834 -2.66425,2.70395 -4.19235,3.83018 -0.90297,-0.45645 -1.79602,-0.92778 -2.65434,-1.4636 -0.50109,0.10419 -0.86823,0.39691 -1.08654,0.86824 1.82083,1.21553 3.98895,1.59756 6.01815,2.33184 -1.52811,-0.13396 -3.14551,-0.19349 -4.50989,-0.96747 -1.10142,-0.72436 -1.94486,-1.77121 -3.02147,-2.5303 0.64001,-0.16372 1.28499,-0.33241 1.92501,-0.49613 1.09646,0.62017 2.22269,1.18576 3.37373,1.6819 z"
         inkscape:connector-curvature="0"
         style="fill:#000000" />
      <path
         inkscape:connector-curvature="0"
         style="fill:#666666"
         id="path4507"
         d="m -167.83653,915.10743 c 1.05181,0.01 2.10858,0.0246 3.16039,0.0397 0.6946,2.17804 1.42888,4.3412 2.24254,6.47459 0,-2.16812 0.005,-4.33624 0.0645,-6.50436 1.04189,-0.005 2.08378,-0.005 3.12566,-0.005 -0.0298,4.96633 -0.005,9.93266 -0.0149,14.89899 -1.14112,-0.0298 -2.28719,-0.0595 -3.43327,-0.0943 -0.60529,-2.15324 -1.2205,-4.30151 -1.83074,-6.45474 -0.10419,2.17308 -0.13892,4.34616 -0.14388,6.5242 -1.05678,-0.005 -2.11355,-0.01 -3.17528,-0.01 -0.0744,-4.9564 -0.0794,-9.91281 0.005,-14.86922 z" />
      <path
         inkscape:connector-curvature="0"
         style="fill:#666666"
         id="path4509"
         d="m -154.07369,915.37534 c 1.98951,-0.61024 4.67361,-0.31256 5.87922,1.57772 0.84343,2.07881 0.46637,4.40073 0.5656,6.5887 -0.10915,1.73152 0.2183,3.7756 -1.00716,5.19455 -2.20285,2.05897 -6.84173,1.73152 -7.81416,-1.4636 -0.34729,-2.71387 -0.13891,-5.47239 -0.14884,-8.20115 -0.11907,-1.64717 0.98235,-3.18023 2.52534,-3.69622 m 1.75136,12.55227 c 1.35942,-1.46857 0.67971,-3.58211 0.83351,-5.37813 -0.14884,-1.79601 0.52095,-3.90956 -0.83847,-5.38308 -0.64498,3.53745 -0.63505,7.22871 0.005,10.76121 z" />
      <path
         inkscape:connector-curvature="0"
         style="fill:#666666"
         id="path4511"
         d="m -145.75347,915.15704 c 2.80813,-0.0595 5.61627,-0.0595 8.4244,-0.0349 0.01,0.97739 0.0198,1.95477 0.0298,2.93713 -0.75413,0.0147 -1.50826,0.0298 -2.25742,0.0496 -0.0496,3.93933 -0.0794,7.87865 0.0198,11.81798 -1.29988,0.0298 -2.59976,0.0496 -3.89467,0.0744 -0.0447,-3.95917 -0.0149,-7.91834 -0.0149,-11.87752 -0.76901,-0.0397 -1.53306,-0.0794 -2.29711,-0.11411 0,-0.95258 -0.005,-1.90516 -0.01,-2.85279 z" />
      <path
         inkscape:connector-curvature="0"
         style="fill:#666666"
         id="path4513"
         d="m -131.1224,915.10247 c 2.39635,-0.0645 4.79765,0.0397 7.18407,0.32249 1.76625,1.69679 2.15323,4.79268 0.15876,6.46962 0.49118,0.44653 1.01708,0.8732 1.41399,1.41399 0.34234,1.62733 0.32249,3.339 0.005,4.9713 -0.15876,0.84839 -0.92777,1.4636 -1.76624,1.5529 -2.312,0.34234 -4.66369,0.12404 -6.99057,0.13892 -0.0893,-4.95641 -0.0844,-9.91281 -0.005,-14.86922 m 3.77561,2.59976 c 0,0.91785 0,1.83074 -0.005,2.74859 0.30264,0.01 0.90793,0.0246 1.21057,0.0298 0.005,-0.93273 0.01,-1.87043 0.01,-2.80317 -0.30264,0.005 -0.91289,0.0198 -1.21553,0.0246 m 0.0298,5.22432 c -0.0496,1.48345 -0.0496,2.96194 -0.0199,4.44539 0.29272,0.0151 0.88808,0.0349 1.18577,0.0446 0.0992,-1.35942 0.10419,-2.72875 -0.0496,-4.08817 -0.27783,-0.0992 -0.83847,-0.30264 -1.1163,-0.40187 z" />
      <path
         inkscape:connector-curvature="0"
         style="fill:#666666"
         id="path4515"
         d="m -118.5999,915.14712 c 1.78113,-0.0349 3.56723,-0.0349 5.35332,0.01 0.73428,4.94153 1.70175,9.84832 2.24254,14.82457 -1.24035,0 -2.48069,-0.005 -3.72103,-0.01 -0.005,-0.80374 -0.01,-1.60748 -0.01,-2.41122 -0.73925,0.005 -1.47353,0.0147 -2.20285,0.0298 0,0.78886 0,1.58268 -0.005,2.3765 -1.24034,0.005 -2.47573,0.01 -3.71111,0.01 0.62018,-4.95144 1.50826,-9.86816 2.05401,-14.82953 m 2.76348,3.38365 c -0.44156,2.14332 -0.6797,4.32136 -0.85831,6.50436 0.41675,0 1.25522,0 1.67198,0 -0.13892,-2.17804 -0.33737,-4.36601 -0.81367,-6.50436 z" />
      <path
         inkscape:connector-curvature="0"
         style="fill:#666666"
         id="path4517"
         d="m -109.29237,915.11735 c 2.1582,0.01 4.3412,-0.17365 6.48451,0.19846 1.18081,0.18357 2.23758,1.17584 2.3368,2.39634 0.20838,1.93989 0.0496,3.88971 0.0943,5.83457 -0.0199,1.54298 0.10419,3.10582 -0.20838,4.62896 -0.16868,0.83351 -0.8732,1.53306 -1.72159,1.64717 -2.312,0.35722 -4.65873,0.129 -6.98065,0.1538 -0.0893,-4.95144 -0.0843,-9.90785 -0.005,-14.8593 m 3.77064,2.56999 c 0.0397,3.23978 0.0397,6.47955 0.005,9.71932 0.29272,0.005 0.87816,0.0147 1.17088,0.0199 0.0992,-3.2497 0.0992,-6.50436 0.0198,-9.75901 -0.29768,0.005 -0.89801,0.0151 -1.19569,0.0198 z" />
      <path
         style="fill:#ffffff"
         inkscape:connector-curvature="0"
         id="path4519"
         d="m -152.32233,927.92761 c -0.64001,-3.5325 -0.64994,-7.22376 -0.005,-10.76121 1.35942,1.47352 0.68963,3.58707 0.83847,5.38308 -0.1538,1.79602 0.52591,3.90956 -0.83351,5.37813 z" />
      <path
         style="fill:#ffffff"
         inkscape:connector-curvature="0"
         id="path4521"
         d="m -127.34679,917.70223 c 0.30264,-0.005 0.91289,-0.0199 1.21553,-0.0246 0,0.93273 -0.005,1.87043 -0.01,2.80317 -0.30264,-0.005 -0.90793,-0.0198 -1.21057,-0.0298 0.005,-0.91785 0.005,-1.83074 0.005,-2.7486 z" />
      <path
         style="fill:#ffffff"
         inkscape:connector-curvature="0"
         id="path4523"
         d="m -105.52173,917.68734 c 0.29768,-0.005 0.89801,-0.0151 1.19569,-0.0198 0.0794,3.25465 0.0794,6.50931 -0.0198,9.75901 -0.29272,-0.005 -0.87816,-0.0147 -1.17088,-0.0199 0.0347,-3.23977 0.0347,-6.47954 -0.005,-9.71932 z" />
      <path
         style="fill:#ffffff"
         inkscape:connector-curvature="0"
         id="path4525"
         d="m -115.83642,918.53077 c 0.4763,2.13835 0.67475,4.32632 0.81367,6.50436 -0.41676,0 -1.25523,0 -1.67198,0 0.17861,-2.183 0.41675,-4.36104 0.85831,-6.50436 z" />
      <path
         style="fill:#ffffff"
         inkscape:connector-curvature="0"
         id="path4527"
         d="m -127.31702,922.92655 c 0.27783,0.0992 0.83847,0.30264 1.1163,0.40187 0.15381,1.35941 0.14884,2.72875 0.0496,4.08817 -0.29769,-0.01 -0.89305,-0.0298 -1.18577,-0.0447 -0.0298,-1.48344 -0.0298,-2.96193 0.0199,-4.44538 z" />
    </g>
  </g>
</svg>
