<?xml version="1.0" encoding="UTF-8" standalone="no"?>
<!-- Created with Inkscape (http://www.inkscape.org/) -->

<svg
   xmlns:dc="http://purl.org/dc/elements/1.1/"
   xmlns:cc="http://creativecommons.org/ns#"
   xmlns:rdf="http://www.w3.org/1999/02/22-rdf-syntax-ns#"
   xmlns:svg="http://www.w3.org/2000/svg"
   xmlns="http://www.w3.org/2000/svg"
   xmlns:sodipodi="http://sodipodi.sourceforge.net/DTD/sodipodi-0.dtd"
   xmlns:inkscape="http://www.inkscape.org/namespaces/inkscape"
   width="13"
   height="13"
   id="svg3148"
   version="1.1"
   inkscape:version="0.48.2 r9819"
   sodipodi:docname="share.svg">
  <defs
     id="defs3150" />
  <sodipodi:namedview
     id="base"
     pagecolor="#ffffff"
     bordercolor="#666666"
     borderopacity="1.0"
     inkscape:pageopacity="0.0"
     inkscape:pageshadow="2"
     inkscape:zoom="7"
     inkscape:cx="-25.231577"
     inkscape:cy="0.51585117"
     inkscape:current-layer="layer1"
     showgrid="true"
     inkscape:grid-bbox="true"
     inkscape:document-units="px"
     inkscape:window-width="1220"
     inkscape:window-height="750"
     inkscape:window-x="182"
     inkscape:window-y="90"
     inkscape:window-maximized="0"
     fit-margin-top="0"
     fit-margin-left="0"
     fit-margin-right="0"
     fit-margin-bottom="0" />
  <metadata
     id="metadata3153">
    <rdf:RDF>
      <cc:Work
         rdf:about="">
        <dc:format>image/svg+xml</dc:format>
        <dc:type
           rdf:resource="http://purl.org/dc/dcmitype/StillImage" />
        <dc:title />
      </cc:Work>
    </rdf:RDF>
  </metadata>
  <g
     id="layer1"
     inkscape:label="Layer 1"
     inkscape:groupmode="layer"
     transform="translate(-0.5,-34.499999)">
    <path
       style="fill:#999999;stroke:none"
       d="m 3.0161579,35.164788 c -1.1134921,0 -2.0161558,0.902664 -2.0161558,2.016154 0,1.113492 0.9026637,2.016157 2.0161558,2.016157 0.072878,0 0.14237,-0.01184 0.2132473,-0.01939 a 0.74450124,0.74450124 0 0 0 0.058158,0.135703 l 2.1324726,4.071084 a 0.7457987,0.7457987 0 0 0 0.077544,0.09693 0.7457987,0.7457987 0 0 0 0,0.01938 c -0.3103656,0.354615 -0.504039,0.809979 -0.504039,1.318256 0,1.113491 0.9026637,2.016156 2.0161559,2.016156 1.1134915,0 2.0161559,-0.902665 2.0161559,-2.016156 0,-0.504019 -0.1983098,-0.964792 -0.5040393,-1.318256 a 0.7457987,0.7457987 0 0 0 0.077545,-0.116317 l 2.1130857,-4.071083 a 0.74450124,0.74450124 0 0 0 0.05815,-0.135705 c 0.07087,0.0075 0.14037,0.01939 0.213248,0.01939 1.113491,0 2.016156,-0.902664 2.016156,-2.016155 0,-1.113493 -0.902665,-2.016156 -2.016156,-2.016156 -1.1134919,0 -2.0161555,0.902663 -2.0161555,2.016156 0,0.501989 0.2005099,0.945968 0.5040394,1.298869 a 0.74450124,0.74450124 0 0 0 -0.077539,0.135703 l -2.1130877,4.071083 a 0.7457987,0.7457987 0 0 0 -0.058158,0.135704 c -0.070878,-0.0075 -0.1403697,-0.01939 -0.2132473,-0.01939 -0.072878,0 -0.14237,0.01184 -0.2132473,0.01939 A 0.7457987,0.7457987 0 0 0 6.7382918,42.686598 L 4.6058193,38.615515 A 0.74450124,0.74450124 0 0 0 4.5282743,38.4992 c 0.312633,-0.355164 0.5040391,-0.807906 0.5040391,-1.318258 0,-1.11349 -0.9026638,-2.016154 -2.0161559,-2.016154 z"
       id="path3156"
       inkscape:connector-curvature="0" />
  </g>
</svg>
