<?xml version="1.0" encoding="UTF-8" standalone="no"?>
<!-- Created with Inkscape (http://www.inkscape.org/) -->

<svg
   xmlns:dc="http://purl.org/dc/elements/1.1/"
   xmlns:cc="http://creativecommons.org/ns#"
   xmlns:rdf="http://www.w3.org/1999/02/22-rdf-syntax-ns#"
   xmlns:svg="http://www.w3.org/2000/svg"
   xmlns="http://www.w3.org/2000/svg"
   xmlns:sodipodi="http://sodipodi.sourceforge.net/DTD/sodipodi-0.dtd"
   xmlns:inkscape="http://www.inkscape.org/namespaces/inkscape"
   width="14"
   height="14"
   id="svg2"
   version="1.1"
   inkscape:version="0.48.2 r9819"
   sodipodi:docname="small_coin.svg">
  <defs
     id="defs4" />
  <sodipodi:namedview
     id="base"
     pagecolor="#ffffff"
     bordercolor="#666666"
     borderopacity="1.0"
     inkscape:pageopacity="0.0"
     inkscape:pageshadow="2"
     inkscape:zoom="22.627417"
     inkscape:cx="0.31849897"
     inkscape:cy="6.3260615"
     inkscape:document-units="px"
     inkscape:current-layer="layer1"
     showgrid="false"
     inkscape:window-width="1191"
     inkscape:window-height="838"
     inkscape:window-x="1"
     inkscape:window-y="25"
     inkscape:window-maximized="0"
     fit-margin-top="0"
     fit-margin-left="0"
     fit-margin-right="0"
     fit-margin-bottom="0" />
  <metadata
     id="metadata7">
    <rdf:RDF>
      <cc:Work
         rdf:about="">
        <dc:format>image/svg+xml</dc:format>
        <dc:type
           rdf:resource="http://purl.org/dc/dcmitype/StillImage" />
        <dc:title />
      </cc:Work>
    </rdf:RDF>
  </metadata>
  <g
     inkscape:label="Layer 1"
     inkscape:groupmode="layer"
     id="layer1"
     transform="translate(-1.7085122,-1036.6533)">
    <g
       id="g2984"
       transform="translate(0.5000001,-0.5)">
      <path
         sodipodi:nodetypes="cccccccccccccccscccsccccccccscccscccscccccc"
         inkscape:connector-curvature="0"
         id="text2989"
         d="m 8.9004092,1039.6962 -1.9259611,0.025 -0.7085295,0.093 c -0.2924334,0.028 -0.4926363,0.1443 -0.7724905,0.2484 -0.3773919,0.1418 -0.7513026,0.3553 -1.1208291,0.6441 l 0,1.4302 c 0.3813201,-0.3395 0.7479553,-0.5982 1.1017601,-0.7755 0.1257948,-0.066 0.2489169,-0.1184 0.3707847,-0.159 l 0,4.1762 -1.0403158,0 0,0.8348 1.0403158,0 0,2.1399 1.1059979,0 c 0.6879237,0.01 1.3757939,0 2.0636822,-0.01 0.9691002,-0.01 1.7165361,-0.2105 2.2416571,-0.6314 0.525108,-0.4209 0.788175,-1.0181 0.788183,-1.7903 -8e-6,-0.587 -0.160494,-1.0763 -0.480962,-1.4662 -0.316619,-0.3939 -0.76164,-0.652 -1.336942,-0.7755 0.478774,-0.078 0.841927,-0.272 1.089047,-0.5848 0.247106,-0.3127 0.370779,-0.7338 0.370786,-1.2628 -7e-6,-0.6834 -0.241986,-1.2099 -0.72462,-1.5805 -0.482648,-0.3707 -1.1696439,-0.5573 -2.0615638,-0.5573 z m -1.8200226,0.9619 1.7331543,0 c 0.5714432,0 0.995374,0.1079 1.2733811,0.3242 0.281856,0.2162 0.423747,0.5426 0.423753,0.9788 -6e-6,0.4402 -0.141897,0.769 -0.423753,0.9853 -0.2780071,0.2123 -0.7019379,0.3178 -1.2733811,0.3178 l -1.7331543,0 z m 0,3.5574 1.8772287,0 c 0.6293627,0 1.0950957,0.1291 1.3962697,0.3878 0.305026,0.2548 0.457648,0.6523 0.457654,1.1928 -6e-6,0.5367 -0.152628,0.9367 -0.457654,1.1992 -0.301174,0.2587 -0.766907,0.3877 -1.3962697,0.3877 l -1.8772287,0 0,-1.1695 2.0107125,0 0,-0.8347 -2.0107125,0 z"
         style="font-size:227.92617798px;font-style:normal;font-variant:normal;font-weight:normal;font-stretch:normal;line-height:125%;letter-spacing:0px;word-spacing:0px;fill:#808080;fill-opacity:1;stroke:none;font-family:DejaVu Sans;-inkscape-font-specification:DejaVu Sans" />
      <path
         inkscape:connector-curvature="0"
         id="path3002"
         d="m 8.2085123,1037.6533 c -3.5849287,0 -6.5000001,2.915 -6.5000001,6.5 0,3.5849 2.9150714,6.5 6.5000001,6.5 3.5849287,0 6.4999997,-2.9151 6.4999997,-6.5 0,-3.585 -2.915071,-6.5 -6.4999997,-6.5 z m 0,0.8902 c 3.1031447,0 5.6097737,2.5067 5.6097737,5.6098 0,3.1032 -2.506629,5.6098 -5.6097737,5.6098 -3.1031442,0 -5.6097743,-2.5066 -5.6097743,-5.6098 0,-3.1031 2.5066301,-5.6098 5.6097743,-5.6098 z"
         style="font-size:medium;font-style:normal;font-variant:normal;font-weight:normal;font-stretch:normal;text-indent:0;text-align:start;text-decoration:none;line-height:normal;letter-spacing:normal;word-spacing:normal;text-transform:none;direction:ltr;block-progression:tb;writing-mode:lr-tb;text-anchor:start;baseline-shift:baseline;color:#000000;fill:#808080;fill-opacity:1;stroke:none;stroke-width:14.42633438;marker:none;visibility:visible;display:inline;overflow:visible;enable-background:accumulate;font-family:Sans;-inkscape-font-specification:Sans" />
    </g>
  </g>
</svg>
