<?xml version="1.0" encoding="UTF-8" standalone="no"?>
<!-- Created with Inkscape (http://www.inkscape.org/) -->

<svg
   xmlns:dc="http://purl.org/dc/elements/1.1/"
   xmlns:cc="http://creativecommons.org/ns#"
   xmlns:rdf="http://www.w3.org/1999/02/22-rdf-syntax-ns#"
   xmlns:svg="http://www.w3.org/2000/svg"
   xmlns="http://www.w3.org/2000/svg"
   xmlns:sodipodi="http://sodipodi.sourceforge.net/DTD/sodipodi-0.dtd"
   xmlns:inkscape="http://www.inkscape.org/namespaces/inkscape"
   width="178.37576"
   height="195.99068"
   id="svg2"
   version="1.1"
   inkscape:version="0.48.2 r9819"
   sodipodi:docname="watch.svg">
  <defs
     id="defs4" />
  <sodipodi:namedview
     id="base"
     pagecolor="#ffffff"
     bordercolor="#666666"
     borderopacity="1.0"
     inkscape:pageopacity="0.0"
     inkscape:pageshadow="2"
     inkscape:zoom="0.7"
     inkscape:cx="-144.49143"
     inkscape:cy="6.9826862"
     inkscape:document-units="px"
     inkscape:current-layer="layer1"
     showgrid="false"
     inkscape:window-width="1320"
     inkscape:window-height="839"
     inkscape:window-x="0"
     inkscape:window-y="0"
     inkscape:window-maximized="0"
     fit-margin-top="0"
     fit-margin-left="0"
     fit-margin-right="0"
     fit-margin-bottom="0" />
  <metadata
     id="metadata7">
    <rdf:RDF>
      <cc:Work
         rdf:about="">
        <dc:format>image/svg+xml</dc:format>
        <dc:type
           rdf:resource="http://purl.org/dc/dcmitype/StillImage" />
        <dc:title />
      </cc:Work>
    </rdf:RDF>
  </metadata>
  <g
     inkscape:label="Layer 1"
     inkscape:groupmode="layer"
     id="layer1"
     transform="translate(-18.043172,-851.36218)">
    <g
       id="g3790"
       transform="matrix(0.73706165,0,0,0.73706165,10.270548,278.36241)">
      <path
         transform="matrix(0.96779516,0,0,0.96779516,-28.831747,760.57163)"
         d="m 287.14285,167.14285 c 0,67.06315 -54.36542,121.42858 -121.42857,121.42858 -67.06315,0 -121.428574,-54.36543 -121.428574,-121.42858 0,-67.06315 54.365424,-121.428571 121.428574,-121.428571 67.06315,0 121.42857,54.365421 121.42857,121.428571 z"
         sodipodi:ry="121.42857"
         sodipodi:rx="121.42857"
         sodipodi:cy="167.14285"
         sodipodi:cx="165.71428"
         id="path2985"
         style="fill:none;stroke:#000000;stroke-width:7.1957674;stroke-linejoin:round;stroke-miterlimit:4;stroke-opacity:1;stroke-dasharray:none"
         sodipodi:type="arc" />
      <path
         sodipodi:nodetypes="ccscc"
         inkscape:connector-curvature="0"
         id="rect3755"
         d="m 132.90757,817.33167 c 0,0 12.26428,76.76352 12.26428,112.92457 0,0 -8.70099,8.16154 -14.12314,8.07474 -5.13716,-0.0822 -13.1291,-8.07474 -13.1291,-8.07474 0,-35.32697 14.98796,-112.92457 14.98796,-112.92457 z"
         style="fill:#000000;fill-opacity:1;stroke:none" />
      <path
         style="fill:#000000;fill-opacity:1;stroke:none"
         d="m 132.90757,798.91031 c 0,0 12.26428,-13.63942 12.26428,-20.06455 0,0 -8.70099,-1.45015 -14.12314,-1.43473 -5.13716,0.0146 -13.1291,1.43473 -13.1291,1.43473 0,6.27693 14.98796,20.06455 14.98796,20.06455 z"
         id="path3782"
         inkscape:connector-curvature="0"
         sodipodi:nodetypes="ccscc" />
    </g>
  </g>
</svg>
